PathFileType	4	(X/Y/Z)	C:\Users\Graham\Documents\MATLAB\MOtoNMS_v2_2\MyData\ElaboratedData\S6\17-05-19\staticElaborations\Static1\Static1\\Static1.trc
DataRate	CameraRate	NumFrames	NumMarkers	Units	OrigDataRate	DataStartFrame
100	100	8	38	mm	100	2
Frame#	Time	V_Sacral			R_ASIS			L_ASIS			R_Knee_Lat			R_Knee_Med			R_Thigh_Upper			R_Thigh_Front			R_Thigh_Rear			L_Knee_Lat			L_Knee_Med			L_Thigh_Upper			L_Thigh_Front			L_Thigh_Rear			R_Ankle_Lat			R_Ankle_Med			R_Shank_Upper			R_Shank_Front			R_Shank_Rear			L_Ankle_Lat			L_Ankle_Med			L_Shank_Upper			L_Shank_Front			L_Shank_Rear			R_Heel			R_MTP1			R_MTP5			L_Heel			L_MTP1			L_MTP5			Clavicle			R_Acromium			L_Acromium			LAJC			RAJC			LHJC			RHJC			LKJC			RKJC		
		X1	Y1	Z1	X2	Y2	Z2	X3	Y3	Z3	X4	Y4	Z4	X5	Y5	Z5	X6	Y6	Z6	X7	Y7	Z7	X8	Y8	Z8	X9	Y9	Z9	X10	Y10	Z10	X11	Y11	Z11	X12	Y12	Z12	X13	Y13	Z13	X14	Y14	Z14	X15	Y15	Z15	X16	Y16	Z16	X17	Y17	Z17	X18	Y18	Z18	X19	Y19	Z19	X20	Y20	Z20	X21	Y21	Z21	X22	Y22	Z22	X23	Y23	Z23	X24	Y24	Z24	X25	Y25	Z25	X26	Y26	Z26	X27	Y27	Z27	X28	Y28	Z28	X29	Y29	Z29	X30	Y30	Z30	X31	Y31	Z31	X32	Y32	Z32	X33	Y33	Z33	X34	Y34	Z34	X35	Y35	Z35	X36	Y36	Z36	X37	Y37	Z37	X38	Y38	Z38	

82	0.810000	-127.965942	1063.719514	18.107477	81.471323	1060.429815	168.447142	84.927486	1057.212699	-99.355434	-34.247535	547.454013	208.631223	5.385159	539.772223	88.485746	90.935273	814.849700	198.835648	92.340136	702.381088	150.944556	48.924237	707.146211	213.502843	-18.975971	559.645135	-139.753658	8.716864	530.677900	-24.254419	112.607912	804.283836	-99.479749	93.642109	689.945391	-55.040275	71.336441	690.747021	-129.913133	-135.105533	102.728442	206.171017	-81.056640	111.163102	120.527304	-13.475295	366.394610	190.160513	-39.606316	251.039167	149.888140	-59.329565	256.727207	214.970322	-115.808510	97.937549	-153.494820	-68.299564	100.397820	-63.839655	-5.114727	373.953075	-129.732282	-23.451865	265.807814	-91.142787	-47.765763	268.277531	-159.027567	-187.812909	32.134299	146.335993	45.527654	61.243345	187.271192	-0.917964	55.014893	256.629340	-173.410341	50.335512	-99.792408	66.407753	53.724969	-112.650717	28.134683	48.348821	-200.905168	72.823127	1485.549641	18.257408	-23.361014	1541.017914	223.787932	-9.603272	1529.454776	-182.585886	-92.054037	99.167685	-108.667238	-108.081087	106.945772	163.349160	21.511157	967.905926	-60.861563	19.041696	970.204585	130.485869	-5.129553	545.161517	-82.004038	-14.431188	543.613118	148.558484	
83	0.820000	-127.956927	1063.722162	18.176028	81.523065	1060.415939	168.459627	84.919336	1057.191910	-99.337780	-34.220585	547.442705	208.652759	5.409920	539.801633	88.504549	90.974256	814.837385	198.848081	92.365031	702.369578	150.951475	48.960164	707.133253	213.517049	-18.984335	559.638850	-139.744954	8.739770	530.659563	-24.239444	112.585507	804.281645	-99.482574	93.624519	689.936539	-55.052824	71.329138	690.742694	-129.914661	-135.107082	102.725742	206.173067	-81.059253	111.161743	120.527588	-13.462122	366.385424	190.169362	-39.603705	251.033084	149.893073	-59.320221	256.717893	214.977063	-115.811881	97.934758	-153.488867	-68.299472	100.393928	-63.833221	-5.113308	373.947250	-129.724787	-23.447749	265.801283	-91.139908	-47.772010	268.275371	-159.017733	-187.812072	32.131190	146.336770	45.528571	61.245634	187.264801	-0.917839	55.012493	256.629248	-173.410227	50.333583	-99.791089	66.406665	53.725611	-112.650107	28.133875	48.349893	-200.905937	72.839262	1485.521301	18.219861	-23.255281	1541.030681	223.765939	-9.627798	1529.421465	-182.608492	-92.055676	99.164343	-108.661044	-108.083167	106.943743	163.350327	21.500953	967.893919	-60.828639	19.074282	970.197522	130.515417	-5.122283	545.149206	-81.992199	-14.405333	543.622169	148.578654	
84	0.830000	-127.946747	1063.724167	18.241777	81.573260	1060.401931	168.474673	84.916060	1057.171003	-99.316554	-34.191229	547.430984	208.674324	5.435720	539.828442	88.523873	91.015140	814.825186	198.862194	92.392159	702.358647	150.959039	48.998387	707.120805	213.531486	-18.987965	559.632563	-139.736194	8.765156	530.641583	-24.224794	112.568205	804.278757	-99.482020	93.623066	689.928267	-55.059752	71.323988	690.737741	-129.912955	-135.108377	102.722948	206.175205	-81.061307	111.159847	120.527839	-13.447076	366.375705	190.178238	-39.599693	251.026572	149.897593	-59.309258	256.708280	214.983466	-115.815335	97.931987	-153.483032	-68.298832	100.390061	-63.826826	-5.109268	373.940891	-129.716441	-23.442219	265.794506	-91.136013	-47.775960	268.272851	-159.007781	-187.811153	32.128108	146.337833	45.529974	61.248201	187.256089	-0.917989	55.010488	256.629445	-173.410304	50.331963	-99.789941	66.405587	53.726163	-112.649294	28.133323	48.351298	-200.906530	72.853073	1485.492529	18.183714	-23.156669	1541.042888	223.740726	-9.644397	1529.391874	-182.631927	-92.057083	99.161024	-108.654929	-108.084842	106.941398	163.351522	21.494710	967.881915	-60.793822	19.106239	970.190451	130.546188	-5.111405	545.137073	-81.980494	-14.377754	543.629713	148.599098	
85	0.840000	-127.935203	1063.725330	18.304544	81.621638	1060.387955	168.492556	84.918094	1057.149856	-99.291833	-34.159806	547.419260	208.696128	5.461713	539.850083	88.544042	91.057970	814.813149	198.878125	92.421696	702.348414	150.967781	49.038989	707.108894	213.546497	-18.986350	559.626406	-139.727312	8.792807	530.624183	-24.210669	112.556793	804.275061	-99.477614	93.635885	689.920126	-55.061013	71.321498	690.732707	-129.907592	-135.109297	102.720106	206.177494	-81.062794	111.157579	120.528214	-13.430313	366.365587	190.187527	-39.594070	251.019950	149.902138	-59.296618	256.698562	214.989931	-115.818654	97.929486	-153.477440	-68.297693	100.386325	-63.820750	-5.102480	373.934321	-129.707407	-23.435283	265.787727	-91.131213	-47.777436	268.270100	-158.997785	-187.810199	32.125210	146.339153	45.531390	61.250769	187.246360	-0.918260	55.009039	256.630031	-173.410622	50.330720	-99.789086	66.404539	53.726597	-112.648457	28.133069	48.352997	-200.906921	72.865569	1485.463763	18.148701	-23.065070	1541.054921	223.712028	-9.652819	1529.365154	-182.656747	-92.058174	99.157906	-108.649095	-108.086046	106.938843	163.352854	21.492868	967.869663	-60.757198	19.137505	970.183328	130.578326	-5.096771	545.125295	-81.968990	-14.349047	543.634671	148.620085	
86	0.850000	-127.921890	1063.725483	18.364060	81.668181	1060.374331	168.513434	84.925848	1057.128387	-99.263928	-34.126965	547.407967	208.718394	5.487399	539.864995	88.565448	91.102686	814.801422	198.896176	92.453750	702.339013	150.978527	49.081739	707.097608	213.562596	-18.979381	559.620552	-139.718168	8.822214	530.607522	-24.197091	112.551895	804.270490	-99.469020	93.660569	689.911853	-55.056730	71.321908	690.728037	-129.898368	-135.109690	102.717343	206.179956	-81.063786	111.155215	120.528882	-13.412164	366.355360	190.197680	-39.586747	251.013666	149.907266	-59.282522	256.689037	214.996915	-115.821598	97.927538	-153.472191	-68.296133	100.382842	-63.815243	-5.093065	373.927939	-129.697866	-23.427068	265.781226	-91.125683	-47.776448	268.267351	-158.987841	-187.809260	32.122689	146.340665	45.532334	61.253026	187.237141	-0.918535	55.008208	256.631054	-173.411179	50.329891	-99.788619	66.403565	53.726902	-112.647764	28.133115	48.354916	-200.907090	72.877850	1485.435533	18.114455	-22.980159	1541.067123	223.679718	-9.653434	1529.340048	-182.683501	-92.058866	99.155190	-108.643717	-108.086738	106.936279	163.354419	21.495931	967.856920	-60.718957	19.168279	970.176195	130.611949	-5.078584	545.114037	-81.957629	-14.319783	543.636481	148.641921	
87	0.860000	-127.906216	1063.724529	18.419980	81.713165	1060.361507	168.537334	84.939653	1057.106575	-99.233343	-34.093539	547.397513	208.741325	5.512722	539.872791	88.588465	91.149143	814.790233	198.916804	92.488317	702.330566	150.992291	49.126118	707.087081	213.580404	-18.967332	559.615189	-139.708554	8.852712	530.591722	-24.183857	112.553934	804.265019	-99.456049	93.694512	689.903399	-55.047131	71.325222	690.723996	-129.885289	-135.109404	102.714846	206.182585	-81.064412	111.153091	120.529998	-13.393108	366.345402	190.209145	-39.577773	251.008217	149.913566	-59.267446	256.680054	215.004854	-115.823932	97.926417	-153.467356	-68.294252	100.379740	-63.810486	-5.081353	373.922163	-129.687993	-23.417811	265.775279	-91.119607	-47.773170	268.264896	-158.978057	-187.808380	32.120737	146.342266	45.532381	61.254657	187.229920	-0.918761	55.007947	256.632492	-173.411919	50.329480	-99.788594	66.402722	53.727078	-112.647344	28.133412	48.356955	-200.907030	72.891006	1485.408411	18.080588	-22.901441	1541.079736	223.643868	-9.647074	1529.315161	-182.712605	-92.059092	99.153079	-108.638921	-108.086908	106.933968	163.356292	21.504402	967.843485	-60.679369	19.199024	970.169187	130.647140	-5.057310	545.103455	-81.946206	-14.290409	543.635152	148.664895	
88	0.870000	-127.887451	1063.722480	18.471920	81.757131	1060.349965	168.564130	84.959717	1057.084462	-99.200734	-34.060407	547.388245	208.765068	5.538064	539.874192	88.613365	91.197105	814.779848	198.940542	92.525247	702.323140	151.010123	49.171382	707.077459	213.600569	-18.950786	559.610491	-139.698217	8.883638	530.576892	-24.170541	112.563110	804.258667	-99.438667	93.735131	689.894896	-55.032523	71.331278	690.720637	-129.868542	-135.108340	102.712821	206.185364	-81.064824	111.151551	120.531692	-13.373722	366.336101	190.222280	-39.567338	251.004055	149.921568	-59.252047	256.671963	215.014083	-115.825451	97.926346	-153.462977	-68.292172	100.377141	-63.806563	-5.067822	373.917362	-129.677940	-23.407824	265.770117	-91.113140	-47.767903	268.263038	-158.968534	-187.807599	32.119510	146.343835	45.531239	61.255382	187.225896	-0.918951	55.008122	256.634251	-173.412742	50.329461	-99.789005	66.402058	53.727122	-112.647263	28.133861	48.358994	-200.906744	72.906018	1485.382939	18.046777	-22.828306	1541.092844	223.604776	-9.634831	1529.289216	-182.744251	-92.058812	99.151743	-108.634770	-108.086582	106.932186	163.358528	21.518711	967.829244	-60.638768	19.230407	970.162503	130.683912	-5.033574	545.093692	-81.934379	-14.261172	543.631219	148.689217	
89	0.880000	-127.864797	1063.719474	18.519507	81.800806	1060.340117	168.593529	84.986098	1057.062147	-99.166850	-34.028359	547.380420	208.789665	5.564160	539.870770	88.640247	91.246247	814.770520	198.967885	92.564223	702.316713	151.032930	49.216659	707.068865	213.623673	-18.930538	559.606579	-139.686897	8.914475	530.563126	-24.156540	112.579391	804.251479	-99.416985	93.779984	689.886553	-55.013289	71.339858	690.717792	-129.848439	-135.106485	102.711452	206.188273	-81.065158	111.150871	120.534039	-13.354606	366.327756	190.237276	-39.555746	251.001496	149.931638	-59.237055	256.665046	215.024771	-115.826012	97.927451	-153.459066	-68.290024	100.375139	-63.803451	-5.053017	373.913796	-129.667834	-23.397444	265.765895	-91.106379	-47.761026	268.262022	-158.959349	-187.806961	32.119086	146.345247	45.528779	61.254997	187.225793	-0.919167	55.008547	256.636189	-173.413521	50.329784	-99.789788	66.401600	53.727025	-112.647514	28.134326	48.360906	-200.906252	72.923693	1485.359551	18.012838	-22.760062	1541.106317	223.562995	-9.617854	1529.261273	-182.778341	-92.058018	99.151295	-108.631259	-108.085822	106.931162	163.361156	21.539143	967.814177	-60.597564	19.263194	970.156346	130.722159	-5.008032	545.084853	-81.921719	-14.232099	543.625595	148.714956	
